<?xml version="1.0" encoding="utf-8"?>
<!-- Generator: Adobe Illustrator 18.1.1, SVG Export Plug-In . SVG Version: 6.00 Build 0)  -->
<svg version="1.1" id="Layer_1" xmlns="http://www.w3.org/2000/svg" xmlns:xlink="http://www.w3.org/1999/xlink" x="0px" y="0px"
	 viewBox="0 0 200 200" style="enable-background:new 0 0 200 200;" xml:space="preserve">
<style type="text/css">
	.st0{opacity:0.6;}
	.st1{fill:#35281C;}
	.st2{fill:#FD7B00;}
	.st3{opacity:0.6;fill:#FD7B00;}
</style>
<g class="st0">
	<rect x="7.5" y="7.5" class="st1" width="185" height="185"/>
	<g>
		<path class="st2" d="M185,15v170H15V15H185 M200,0H0v200h200V0L200,0z"/>
	</g>
</g>
<circle class="st3" cx="140.4" cy="63.7" r="8.7"/>
<path class="st3" d="M144.8,144.9h-10.5c-1.4,0-2.6-1.2-2.6-2.6V83.2c0-1.4,1.2-2.6,2.6-2.6h10.5c1.4,0,2.6,1.2,2.6,2.6v59.1
	C147.4,143.8,146.2,144.9,144.8,144.9z"/>
<path class="st3" d="M93.8,55.1H75.3c-0.5,0-0.9,0.4-0.9,0.9l-0.1,3.9c0,0.1,0,0.2,0,0.3L47,143.7c-0.2,0.6,0.3,1.2,0.9,1.2h13.4
	c0.4,0,0.8-0.3,0.9-0.6l7.4-22.8c0.1-0.4,0.5-0.6,0.9-0.6l29,0.1c0.4,0,0.8,0.3,0.9,0.7l7,22.7c0.1,0.4,0.5,0.7,0.9,0.7h15.1
	c0.6,0,1.1-0.6,0.9-1.2l-29.5-88C94.6,55.3,94.2,55.1,93.8,55.1z M74.1,104.9l9.7-33.4c0.3-0.9,1.5-0.9,1.8,0l9.9,33.4
	c0.2,0.6-0.3,1.2-0.9,1.2H75C74.4,106.1,73.9,105.5,74.1,104.9z"/>
</svg>
