<?xml version="1.0" encoding="utf-8"?>
<!-- Generator: Adobe Illustrator 18.1.1, SVG Export Plug-In . SVG Version: 6.00 Build 0)  -->
<svg version="1.1" id="Layer_1" xmlns="http://www.w3.org/2000/svg" xmlns:xlink="http://www.w3.org/1999/xlink" x="0px" y="0px"
	 width="413.1px" height="389.1px" viewBox="0 0 413.1 389.1" enable-background="new 0 0 413.1 389.1" xml:space="preserve">
<path fill="#111820" d="M174.6,60c0.7,0.1,1.5-0.6,1.9-1.2c5.1-6.3,10.2-13,12.4-20.9c7.3-25.6-22.6-37.2-42.8-37.9
	c-22.5-0.7-46.1,7.3-63.5,21.6c-12.1,9.9-20.9,23.7-24.3,39.1c-1.3,6.2-1.6,12.6-0.1,18.7c5.7,23.7,31.8,36.2,52.3,44.4
	c13.5,5.4,27.9,10.7,38.7,20.9c12.8,12.1,15.9,30.1,7.8,45.9c-4.5,8.7-11.4,15.8-18.9,22c-14.7,12.1-31.9,21-50.3,26.1
	c-19.5,5.3-41.1,6.1-59.4-2.6c-5.6-2.7-11-6.4-14.2-11.7c-4-6.8-3.9-15.6-1.2-23c2.7-7.5,7.7-13.9,13.1-19.7
	c9.9-10.8,21.8-19.8,34.8-26.5c6.7-3.4,13.6-6.3,20.8-8.6c3.7-1.2,7.5-1.8,11.3-2.6c2.7-0.5,6.4-0.9,9.1-2.2
	c0.8-0.4,0.8-1.5,0.1-1.9c-2.2-1.3-5.1-1.8-7.4-2c-4.3-0.4-8.8-0.1-13.1,0.1c-4,0.2-8,0.6-12,1.3c-7.9,1.3-15.7,3.4-23.2,6.5
	c-8.7,3.6-16.9,8.6-23.9,14.9C8.7,173.4-0.5,192.4,0,211.6c0.6,19.1,13.5,35,30.8,42.2c13.8,5.8,29.9,7.5,44.8,6.6
	c24-1.4,49.7-8.3,70-21.4c4.6-3,9.1-6.3,13.2-10c2.9-2.5,5.3-5.5,7.9-8.3c4.2-4.3,4.1-2,6,2.6c3.3,8.2,7.6,16,16.3,19.2
	c9.8,3.5,20.7,1.4,29.5-3.6c6.3-3.6,11.7-8.5,16.9-13.5c8.4-8,15.4-18.1,21.7-27.8c4.3-6.7,8.1-13.7,11.2-21
	c0.8-1.8,6-19.1,8.4-18.1c1.4,0.6,0.9,6,0.9,7.1c0,3.1-0.2,6.2-0.4,9.3c-1.1,14.6-3,29.3-5.7,43.6c-7.8,40.9-24,82.5-49.6,115.7
	c-15.7,20.5-37.8,38.1-64.1,41.5c-4.5,0.6-9.8,0.5-12.9-2.8c-2.5-2.8-2.8-6.9-2.6-10.6c1.4-22.7,16.6-40.7,32.6-55.4
	c24.1-22.3,50.7-42.1,76.2-62.9c0.5-0.4,0-1.2-0.6-0.9c-8.9,4-17.9,7.6-26.5,12.2c-10.2,5.4-20.1,11.4-29.7,17.8
	c-18.6,12.5-36.9,26.6-50.4,44.7c-11.3,15.1-17.4,33.2-12.9,52.1c1.4,5.9,4,11.8,8.8,15.4c6,4.5,14.3,4.5,21.7,3.3
	c28.5-4.7,54.1-23.4,72.6-44.8c14.5-16.7,24.4-35.5,32.3-56.1c17.7-46.4,19.4-94.7,24.3-143.4c0,0,0-0.1,0-0.1
	c0.1-0.7,0.1-1.4-0.1-2.1c-0.3-0.9-1-1.5-1.7-2.1c-4.9-4.1-9.8-8.3-14.7-12.4c-2.2-1.8-3.5-0.7-4.6,1.4c-2.3,4.2-4.3,8.7-6.4,13
	c-4.3,8.6-8.8,17.2-13.3,25.7c-7,13-14.2,25.9-23.4,37.4c-6.8,8.5-20.9,26.8-33.6,19.8c-2.2-1.2-3.8-3.1-5-5.2
	c-6.2-11-3.1-27.1-0.2-38.8c3.4-13.7,8.9-26.8,13.6-40.1c0.3-0.9,0.7-1.9,0.4-2.9c-0.3-1-1.2-1.6-2-2.2c-2.7-1.9-5.4-3.9-8.1-5.8
	c-0.4-0.3-7-4.2-7-4.3c-2,4.5-3.4,9.3-4.7,14c-1.1,4.4-1.5,10.1-3.5,14.1c-6.5-5.5-11.7-12.9-18.3-18.6c-6.7-5.7-13.9-10.9-21.2-16
	c-11.4-7.8-23.1-15.2-35-22.1C91.9,91,78.9,86.3,72.3,76.1c-5.2-8.1-3.7-18.2,0.8-26.3c10.9-19.4,32.9-32.3,54.1-37
	c15.3-3.4,40.6-4.9,50.2,11c3.3,5.5,3.1,12.3,1.7,18.4c-0.8,3.2-1.9,6.4-3,9.5C175.7,52.8,172.4,59.8,174.6,60z"/>
<path fill="#111820" d="M335.3,18.7c0.4-0.2,1.2-0.2,2.4,0.2c6.6,1.9,13.4,6.9,19.5,10c0.8,0.4,1.6,0.9,2.2,1.6
	c0.5,0.7,0.7,1.7,0.8,2.6c7,54.6,13.4,109.4,17.4,164.3c0.6,8.9,1.2,17.8,1.7,26.7c0.3,5.2,0.9,10.3,1.2,15.5
	c0.1,1.8,1.5,13.1-1.9,11.4c-5.7-2.9-11.2-6.3-16.2-10.2c0.8-30.8-0.7-61.8-4.4-92.4c-1-8.5-15.1-6-20.5-3.7
	c-5.9,2.5-10.9,7-14.9,12c-7,8.8-11.4,19.4-14,30.3c-1.7,7.4-2.7,15.3-0.4,22.6c2.2,7.3,8.2,13.9,15.8,14.9
	c6.5,0.9,12.6-2.6,16.9-7.3c3.4-3.7,5.6-8.2,8.2-12.4c0.8-1.2,2.7-0.8,2.8,0.6c0,0,0,0,0,0c0.3,6.2-0.8,12.4-3,18.2
	c-2.3,6.1-5.5,11.8-11.6,14.8c-6.5,3.2-13.7,4.7-20.6,2c-6.8-2.6-12.3-8.2-16.4-14.2c-6.2-9-8.8-20.1-8.7-30.9
	c0.1-10.9,2.8-21.6,6.6-31.8c2.7-7.4,6-14.7,10.9-21s11.3-11.5,18.9-13.7c4.7-1.4,9.6-1.6,14.4-1c4.4,0.5,9.5,3.2,13.6,3.1
	c0.7-8.9-2.1-19.4-3.5-28.2c-1.5-9.5-3.3-18.9-5.2-28.4c-1.9-9.4-4-18.7-6.1-28c-1.1-4.8-2.2-9.6-3.4-14.4c-0.7-2.9-1.8-5.6-2.4-8.5
	C334.8,20.8,334.3,19.2,335.3,18.7z"/>
<path fill="#E62C94" d="M392.2,227.5c-0.1,0.3,16,8.3,17.5,9.4c5.6,4.2,2.9,6.6,0.8,12.5c-6.4-2.9-12.9-5.8-19.3-8.7
	c-0.4-0.2-0.9-0.4-1.1-0.8c-0.2-0.4-0.1-1-0.1-1.5C390.8,234.7,391.5,231.1,392.2,227.5z"/>
</svg>
