<?xml version="1.0" encoding="utf-8"?>
<!-- Generator: Adobe Illustrator 18.1.1, SVG Export Plug-In . SVG Version: 6.00 Build 0)  -->
<svg version="1.1" id="Layer_1" xmlns="http://www.w3.org/2000/svg" xmlns:xlink="http://www.w3.org/1999/xlink" x="0px" y="0px"
	 width="279.7px" height="47.4px" viewBox="0 0 279.7 47.4" style="enable-background:new 0 0 279.7 47.4;" xml:space="preserve">
<style type="text/css">
	.st0{fill:#4D4D4D;}
</style>
<path class="st0" d="M50.5,18.4L64.1,3L0,20.8l64.2,26.6L50.7,25h217.7c0,0,5.7-6,0-6L50.5,18.4z"/>
<polygon class="st0" points="179.4,17 194.4,17 206.7,0 191.4,0 "/>
<polygon class="st0" points="197.4,17 212.4,17 224.7,0 209.4,0 "/>
<polygon class="st0" points="215.4,17 230.4,17 242.7,0 227.4,0 "/>
<polygon class="st0" points="233.4,17 248.4,17 260.7,0 245.4,0 "/>
<polygon class="st0" points="251.4,17 266.4,17 278.7,0 263.4,0 "/>
<polygon class="st0" points="180.4,27 195.4,27 207.7,44 192.4,44 "/>
<polygon class="st0" points="198.4,27 213.4,27 225.7,44 210.4,44 "/>
<polygon class="st0" points="216.4,27 231.4,27 243.7,44 228.4,44 "/>
<polygon class="st0" points="234.4,27 249.4,27 261.7,44 246.4,44 "/>
<polygon class="st0" points="252.4,27 267.4,27 279.7,44 264.4,44 "/>
<g>
</g>
<g>
</g>
<g>
</g>
<g>
</g>
<g>
</g>
<g>
</g>
<g>
</g>
<g>
</g>
<g>
</g>
<g>
</g>
<g>
</g>
<g>
</g>
<g>
</g>
<g>
</g>
<g>
</g>
</svg>
