<?xml version="1.0" encoding="utf-8"?>
<!-- Generator: Adobe Illustrator 19.2.0, SVG Export Plug-In . SVG Version: 6.00 Build 0)  -->
<svg version="1.1" id="Layer_1" xmlns="http://www.w3.org/2000/svg" xmlns:xlink="http://www.w3.org/1999/xlink" x="0px" y="0px"
	 viewBox="0 0 252 85.4" style="enable-background:new 0 0 252 85.4;" xml:space="preserve">
<style type="text/css">
	.st0{fill:#FFFFFF;}
</style>
<path class="st0" d="M212.2,25v56.4H4V25H212.2 M216.2,21H0v64.4h216.2V21L216.2,21z"/>
<path class="st0" d="M248,7v54.5l-27.8,16.9v-55L248,7 M252,0l-35.8,21v64.4L252,63.7V0L252,0z"/>
<path class="st0" d="M237.3,4l-22.2,13H14.6l22-13H237.3 M252,0H35.5L0,21h216.2L252,0L252,0z"/>
<path class="st0" d="M212.2,25v56.4H4V25H212.2 M216.2,21H0v64.4h216.2V21L216.2,21z"/>
<path class="st0" d="M248,7v54.5l-27.8,16.9v-55L248,7 M252,0l-35.8,21v64.4L252,63.7V0L252,0z"/>
<path class="st0" d="M237.3,4l-22.2,13H14.6l22-13H237.3 M252,0H35.5L0,21h216.2L252,0L252,0z"/>
</svg>
