<?xml version="1.0" encoding="utf-8"?>
<!-- Generator: Adobe Illustrator 18.1.1, SVG Export Plug-In . SVG Version: 6.00 Build 0)  -->
<svg version="1.1" id="Layer_1" xmlns="http://www.w3.org/2000/svg" xmlns:xlink="http://www.w3.org/1999/xlink" x="0px" y="0px"
	 viewBox="0 0 200 200" style="enable-background:new 0 0 200 200;" xml:space="preserve">
<style type="text/css">
	.st0{opacity:0.6;}
	.st1{fill:#412F36;}
	.st2{fill:#D61F7E;}
	.st3{opacity:0.6;fill:#D61F7E;}
</style>
<g class="st0">
	<rect x="7.5" y="7.5" class="st1" width="185" height="185"/>
	<g>
		<path class="st2" d="M185,15v170H15V15H185 M200,0H0v200h200V0L200,0z"/>
	</g>
</g>
<path class="st3" d="M92.7,122.8c4.5,22.5,38.1,16.6,46.7,15.7c1.2-0.1,2.1-1.1,2.1-2.3V56.8c0-1.3-1-2.3-2.3-2.3h-10.4
	c-1.3,0-2.3,1-2.3,2.2l-0.8,17.8c0,1.3-1.1,2.3-2.4,2.2C83.4,74.7,89.7,107.3,92.7,122.8z M125.7,95.9v30.8
	c-11.7,0.5-17.7-1.4-19-15.1C105.2,96.4,110.7,95.9,125.7,95.9z"/>
<path class="st3" d="M80.8,138.3H69.4c-1.4,0-2.6-1.2-2.6-2.6V62.1c0-1.4,1.2-2.6,2.6-2.6h11.4c1.4,0,2.6,1.2,2.6,2.6v73.6
	C83.4,137.1,82.2,138.3,80.8,138.3z"/>
</svg>
