<?xml version="1.0" encoding="utf-8"?>
<!-- Generator: Adobe Illustrator 18.1.1, SVG Export Plug-In . SVG Version: 6.00 Build 0)  -->
<svg version="1.1" id="Layer_1" xmlns="http://www.w3.org/2000/svg" xmlns:xlink="http://www.w3.org/1999/xlink" x="0px" y="0px"
	 viewBox="0 0 200 200" style="enable-background:new 0 0 200 200;" xml:space="preserve">
<style type="text/css">
	.st0{opacity:0.6;}
	.st1{fill:#2D2F4F;}
	.st2{fill:#33D1FF;}
	.st3{opacity:0.6;fill:#33D1FF;}
</style>
<g class="st0">
	<rect x="7.5" y="7.5" class="st1" width="185" height="185"/>
	<g>
		<path class="st2" d="M185,15v170H15V15H185 M200,0H0v200h200V0L200,0z"/>
	</g>
</g>
<path class="st3" d="M149.4,79c0-0.6-0.4-1.2-0.9-1.4c-5.5-1.9-32.9-10.1-37.1,12.3c-4.7,25.7,30.5,21.8,26.7,32.5
	c-3.4,9.6-18,4.8-24.5,1.3c-0.9-0.5-2.1,0.2-2.1,1.2l-0.3,10.5c0,0.6,0.4,1.2,0.9,1.4c5.7,2,34.8,11,40.5-13
	c6.2-26.5-38.4-19.2-24.4-35.8c0.2-0.3,0.5-0.4,0.9-0.5c2.1-0.3,10-1.2,17.9,2.6c0.9,0.5,2-0.2,2.1-1.2L149.4,79z"/>
<path class="st3" d="M99.4,68.8c-8-14.9-40.3-12.5-48.7-11.6c-1.1,0.1-2,1.1-2,2.2v78.5c0,1.2,1,2.2,2.2,2.2H61c1.2,0,2.2-1,2.2-2.2
	l0.3-23.1c0-1.3,1.1-2.3,2.4-2.2C104.7,114.7,108.5,85.6,99.4,68.8z M64.1,99.3V68.9c14.6,0,25.7,2,25.7,15.2
	C89.8,99.1,78.6,99.3,64.1,99.3z"/>
</svg>
