<?xml version="1.0" encoding="utf-8"?>
<!-- Generator: Adobe Illustrator 18.1.1, SVG Export Plug-In . SVG Version: 6.00 Build 0)  -->
<svg version="1.1" id="Layer_1" xmlns="http://www.w3.org/2000/svg" xmlns:xlink="http://www.w3.org/1999/xlink" x="0px" y="0px"
	 width="599.6px" height="599.6px" viewBox="0 0 599.6 599.6" enable-background="new 0 0 599.6 599.6" xml:space="preserve">
<g>
	<path fill="#FFFFFF" d="M590.5,9.1v581.4H9.1V9.1H590.5 M599.6,0H0v599.6h599.6V0L599.6,0z"/>
</g>
<g>
	<path fill="#FFFFFF" d="M276.6,357.5c-0.9,4.2-1.5,7.8-2.4,11.4c-3.1,12.6-6.1,25.3-9.5,37.9c-3.7,13.5-9.3,26.2-16.9,37.9
		c-4.9,7.6-10.8,14.3-17.9,20c-0.7,0.6-1.6,1-2.7,1.6c-0.5-2.6-1.1-4.8-1.3-7.1c-1.6-16.1-1.6-32.3,0.1-48.4
		c0.8-7.7,2.2-15.3,3.7-22.9c2.7-13.1,5.5-26.1,8.7-39c2.7-11.2,6.1-22.3,9-33.5c1.6-6.2,2.9-12.5,4.2-18.8c0.1-0.6-0.4-1.5-0.7-2.1
		c-7-14.5-7.6-29.4-3.6-44.8c2.4-9.3,6.1-17.7,12.6-24.7c10.6-11.3,25.2-13.1,38.2-4.7c5.5,3.5,8.4,8.9,9.1,15.2
		c1.1,9.7-0.8,19.1-3.6,28.4c-3,9.9-6.1,19.8-8.8,29.8c-1.9,7.2-3.6,14.6-4.6,22c-2.2,16.6,5.6,27.4,23,29.8
		c21,3,35.3-7.1,46.7-23.4c7.3-10.5,12-22.2,15.1-34.5c4.6-18.2,5.6-36.7,2.4-55.2c-2.1-11.9-6-23.4-14.1-32.8
		c-9.8-11.3-22.1-18.8-36.5-23c-12.2-3.6-24.5-4-36.8-1.9c-17.2,2.9-32.8,9.9-46.5,20.9c-10.7,8.6-19.3,18.9-25.4,31.2
		c-6.3,12.7-8.8,26.2-8.6,40.4c0.2,12.2,5.2,22.3,11.2,32.3c6.2,10.2,4.1,20.1-1.2,29.8c-0.4,0.7-2.1,1.3-2.9,1.1
		c-18.5-4.7-31.8-15.3-38.1-33.7c-5.3-15.4-6-31.1-4.4-47.2c1.1-11.3,4-21.9,8.5-32.3c6.4-14.8,15.8-27.5,27.6-38.4
		c11.3-10.5,24.2-18.7,38.4-24.6c11.7-4.8,23.9-8.3,36.7-9c7.3-0.4,14.7-1.2,22-0.9c16.1,0.7,31.8,3.3,47,9c18.8,7,35,17.5,47.8,33
		c8.1,9.8,13.8,21,17.4,33.3c4.4,14.7,4.6,29.7,4.1,44.8c-0.7,18.4-4.9,35.9-12.2,52.8c-6.6,15.3-15.7,28.7-28.1,39.8
		c-9.7,8.7-20.8,15.1-33.3,18.5c-14.3,3.8-29.1,5.2-43.4,0c-7.1-2.6-13.4-7.3-20-11.2C283.4,362.4,280.4,360.1,276.6,357.5z"/>
</g>
</svg>
