<?xml version="1.0" encoding="utf-8"?>
<!-- Generator: Adobe Illustrator 18.1.1, SVG Export Plug-In . SVG Version: 6.00 Build 0)  -->
<svg version="1.1" id="Layer_1" xmlns="http://www.w3.org/2000/svg" xmlns:xlink="http://www.w3.org/1999/xlink" x="0px" y="0px"
	 width="599.6px" height="599.6px" viewBox="0 0 599.6 599.6" enable-background="new 0 0 599.6 599.6" xml:space="preserve">
<g>
	<path fill="#FFFFFF" d="M590.5,9.1v581.4H9.1V9.1H590.5 M599.6,0H0v599.6h599.6V0L599.6,0z"/>
</g>
<g>
	<path fill="#FFFFFF" d="M92.1,180.5c1.4,0.1,2.8,0.2,4.2,0.2c38.5,0,76.9-0.1,115.4,0c13.4,0,26.6,1.3,39.3,6
		c17.4,6.4,30.5,17.5,36.5,35.3c6.1,18.1,6.2,36.4-2.5,54c-4.2,8.5-11.2,14.5-19.3,19.2c-1.3,0.8-2.6,1.6-3.9,2.3
		c-0.1,0-0.1,0.2-0.3,0.6c3.2,1.6,6.5,3.1,9.6,4.8c17.4,9.8,25.7,25.5,28,44.6c2.1,18-1.2,35-10.8,50.5c-8,12.9-18.9,22.7-33.3,28.3
		c-16.5,6.5-33.7,7.4-51.1,7.4c-35.9,0.1-71.7,0-107.6,0c-1.4,0-2.8,0.1-4.2,0.2C92.1,349.6,92.1,265,92.1,180.5z M150.6,389.9
		c7.4,0,14.4,0.1,21.4,0c14.7-0.2,29.4-0.2,44.1-0.8c8.5-0.4,16.3-3.5,22.1-10.2c7.9-9.1,8.8-19.9,7.4-31.2
		c-1.3-11.3-7.9-18.6-18.5-22c-5.3-1.7-11-2.9-16.5-3c-18.8-0.4-37.7-0.2-56.5-0.4c-3,0-3.9,0.8-3.8,3.8c0.1,20.1,0.1,40.3,0.1,60.4
		C150.5,387.5,150.6,388.4,150.6,389.9z M180.3,280.6c7.6,0,15.2,0.2,22.7-0.1c5.6-0.2,11.2-0.8,16.7-1.9
		c7.7-1.6,14.8-4.8,18.5-12.4c3.1-6.4,3.7-13.3,2.5-20.3c-1.6-9.4-6.5-16.1-16.2-18.1c-7.1-1.5-14.3-2.8-21.4-3
		c-16.6-0.5-33.1-0.1-49.7-0.3c-2.6,0-3,1-3,3.3c0.1,16.5,0.1,32.9,0,49.4c0,2.8,1,3.5,3.6,3.4C162.7,280.5,171.5,280.6,180.3,280.6
		z"/>
	<path fill="#FFFFFF" d="M499.1,348.9c-0.9-0.1-1.7-0.2-2.6-0.2c-42,0-84.1,0-126.1,0c-1,0-1.9,0-3.5,0c0.4,3.5,0.6,6.7,1.1,9.8
		c3.3,20.2,17.7,33.3,38.2,34.8c8.5,0.6,16.9,0.3,24.8-3.4c6.2-2.9,11.3-6.9,14.5-12.9c1.7-3,3.7-4.1,7.2-4.1
		c13.2,0.2,26.4,0.1,39.7,0.1c1.2,0,2.3,0,4.2,0c-0.6,2.9-0.9,5.5-1.8,7.8c-5.1,13.9-14.2,24.9-25.8,33.9
		c-17.1,13.1-36.9,17.3-57.9,17.5c-23.8,0.1-45.2-7.1-63.8-22c-12.9-10.3-20.6-24.1-24.2-40.1c-5.5-23.8-5.3-47.5,1.4-71
		c5-17.5,14.9-31.8,29.7-42.6c17.6-12.8,37.6-17.2,58.9-16.5c16,0.5,31.3,3.9,45.4,11.9c11.1,6.4,19.6,15.5,26.4,26.3
		c8.7,13.7,12.5,28.9,13.6,44.9c0.1,1,0.4,2.1,0.7,3.1C499.1,333.7,499.1,341.3,499.1,348.9z M449.4,317.2
		c-0.2-22-15.6-38.2-40.6-38.4c-26.8-0.2-38.3,19.3-40.1,38.4C395.6,317.2,422.5,317.2,449.4,317.2z"/>
	<path fill="#FFFFFF" d="M358,216.4c0-8.6,0-16.6,0-25c33.9,0,67.6,0,101.6,0c0,7.9,0,15.6-0.1,23.2c0,0.6-1,1.3-1.8,1.7
		c-0.6,0.3-1.5,0.1-2.2,0.1c-31.3,0-62.6,0-93.9,0C360.6,216.4,359.5,216.4,358,216.4z"/>
</g>
</svg>
