<?xml version="1.0" encoding="utf-8"?>
<!-- Generator: Adobe Illustrator 18.1.1, SVG Export Plug-In . SVG Version: 6.00 Build 0)  -->
<svg version="1.1" id="Layer_1" xmlns="http://www.w3.org/2000/svg" xmlns:xlink="http://www.w3.org/1999/xlink" x="0px" y="0px"
	 width="599.6px" height="599.6px" viewBox="0 0 599.6 599.6" enable-background="new 0 0 599.6 599.6" xml:space="preserve">
<g>
	<path fill="#FFFFFF" d="M590.5,9.1v581.4H9.1V9.1H590.5 M599.6,0H0v599.6h599.6V0L599.6,0z"/>
</g>
<g id="f8s4ah_1_">
	<g>
		<path fill="#FFFFFF" d="M259.8,233.3c0,68.4,0,136.4,0,204.7c1.4,0,2.4,0,3.5,0c20.3,0,40.6-0.1,60.8,0.1c3.3,0,4-1.1,4-4.2
			c-0.1-11.8-0.1-23.7-0.1-35.5c0.1-26.8-0.2-53.6,0.4-80.4c0.4-20.2,17-35.7,37.2-35.8c15.1-0.1,25.7,7.4,30.7,21.6
			c3.1,8.7,3.6,17.7,3.7,26.7c0.1,34.4,0.1,68.8,0,103.2c0,3.2,0.8,4.4,4.2,4.3c20.2-0.2,40.3-0.1,60.5,0c3.3,0,4.3-0.9,4.3-4.2
			c-0.1-37.4,0-74.8-0.1-112.3c-0.1-14.4-1.6-28.7-6.3-42.4c-5.8-16.9-15.4-30.7-30.9-40.1c-10.2-6.2-21.4-9.3-33.2-10.3
			c-28.2-2.3-51.6,6.1-68.1,30.2c-0.4,0.6-1.1,1-2.2,2.1c0-8.5-0.1-16.2,0.1-23.9c0.1-3.2-0.8-4.1-4.1-4.1
			c-20.3,0.1-40.6,0.1-60.8,0.1C262.2,233.1,261.2,233.2,259.8,233.3z M153.2,233.4c-0.1,1.3-0.2,2.3-0.2,3.2
			c0,65.9,0,131.8-0.1,197.7c0,2.9,0.9,3.7,3.7,3.7c20.3-0.1,40.6-0.1,60.8,0c3.6,0,4.4-1.1,4.4-4.5c-0.1-65.3-0.1-130.6-0.1-195.9
			c0-1.3,0-2.6,0-4.2C198.8,233.4,176.2,233.4,153.2,233.4z M149.1,169.7c0,12.1,6.2,24.3,16.3,29.7c15.8,8.4,31.8,8.4,46.9-2
			c18.3-12.6,18.4-41.7,0.7-55.1c-9.8-7.4-20.9-8.9-32.6-7.4C162.3,137.3,149.1,152,149.1,169.7z"/>
		<path fill="#FFFFFF" d="M259.8,233.3c1.3-0.1,2.4-0.2,3.5-0.2c20.3,0,40.6,0.1,60.8-0.1c3.2,0,4.1,0.9,4.1,4.1
			c-0.2,7.7-0.1,15.4-0.1,23.9c1.1-1,1.8-1.5,2.2-2.1c16.5-24.1,39.8-32.5,68.1-30.2c11.8,1,23,4.2,33.2,10.3
			c15.5,9.3,25.1,23.2,30.9,40.1c4.7,13.8,6.3,28,6.3,42.4c0.1,37.4,0,74.8,0.1,112.3c0,3.4-1,4.3-4.3,4.2
			c-20.2-0.1-40.3-0.1-60.5,0c-3.4,0-4.2-1.1-4.2-4.3c0.1-34.4,0.1-68.8,0-103.2c0-9.1-0.5-18-3.7-26.7
			c-5.1-14.2-15.6-21.8-30.7-21.6c-20.2,0.2-36.8,15.7-37.2,35.8c-0.5,26.8-0.3,53.6-0.4,80.4c0,11.8-0.1,23.7,0.1,35.5
			c0,3-0.6,4.2-4,4.2c-20.3-0.2-40.6-0.1-60.8-0.1c-1.1,0-2.1,0-3.5,0C259.8,369.7,259.8,301.6,259.8,233.3z"/>
		<path fill="#FFFFFF" d="M153.2,233.4c23,0,45.6,0,68.6,0c0,1.6,0,2.9,0,4.2c0,65.3,0,130.6,0.1,195.9c0,3.4-0.8,4.6-4.4,4.5
			c-20.3-0.2-40.6-0.1-60.8,0c-2.8,0-3.7-0.8-3.7-3.7c0.1-65.9,0.1-131.8,0.1-197.7C153,235.6,153.1,234.7,153.2,233.4z"/>
		<path fill="#FFFFFF" d="M149.1,169.7c0-17.7,13.2-32.4,31.2-34.7c11.7-1.5,22.8,0,32.6,7.4c17.8,13.3,17.6,42.4-0.7,55.1
			c-15,10.4-31,10.4-46.9,2C155.2,193.9,149.1,181.7,149.1,169.7z"/>
	</g>
</g>
</svg>
