<?xml version="1.0" encoding="utf-8"?>
<!-- Generator: Adobe Illustrator 18.1.1, SVG Export Plug-In . SVG Version: 6.00 Build 0)  -->
<svg version="1.1" id="Layer_1" xmlns="http://www.w3.org/2000/svg" xmlns:xlink="http://www.w3.org/1999/xlink" x="0px" y="0px"
	 width="599.6px" height="599.6px" viewBox="0 0 599.6 599.6" enable-background="new 0 0 599.6 599.6" xml:space="preserve">
<g>
	<path fill="#FFFFFF" d="M590.5,9.1v581.4H9.1V9.1H590.5 M599.6,0H0v599.6h599.6V0L599.6,0z"/>
</g>
<g>
	<path fill="#FFFFFF" d="M359.4,259.4c28.1,0,55.3-0.1,82.4,0.3c1.7,0,4.7,4.3,4.8,6.6c0.4,17.6,0.2,35.2,0.2,52.7
		c0,24.7,0.1,49.3-0.1,74c-0.2,35.5-24.9,60.6-60.5,60.8c-60.4,0.2-120.8,0.2-181.2,0c-33.5-0.1-59-25.1-59.4-58.4
		c-0.5-42.8-0.1-85.6-0.2-128.5c0-4.4,0.3-7.7,6.2-7.6c26.6,0.2,53.2,0.1,81.4,0.1c-14.6,23.3-18.2,47.1-9,72.2
		c5.9,16,16.4,28.3,30.8,37.4c29.1,18.5,66.3,15.4,92.3-7.5C375.3,336.6,379.8,301.7,359.4,259.4z"/>
	<path fill="#FFFFFF" d="M446.8,250c-3.6,0.2-6.1,0.5-8.6,0.5c-26.4,0.1-52.8,0.3-79.1-0.1c-4.4-0.1-9.6-1.8-12.9-4.6
		c-30-24.5-69.2-24.8-99.4-0.6c-3.4,2.8-8.4,5-12.8,5.1c-26.9,0.4-53.9,0.2-80.8,0.1c-2.2,0-4.4-0.4-6.5-0.6
		c-3-43-2.8-68.6,24.4-86.5c0,19.2-0.1,37.8,0,56.3c0,6.2,4.3,9.1,9.1,5.8c1.7-1.2,2.6-4.7,2.6-7.2c0.2-18.7,0.3-37.4,0-56.2
		c-0.1-5.6,1.5-8.7,8.8-8.1c0,8,0,16,0,24.1c0,13.3,0,26.7,0,40c0,3.7-1.4,8.3,5.2,8.5c6.7,0.2,7-3.9,7-8.9
		c-0.1-18.2-0.1-36.3-0.1-54.5c0-2-0.6-4.2,0.1-5.9c0.9-2.1,2.9-3.8,4.4-5.7c1.3,2,3.8,3.9,3.8,5.9c0.2,20.4,0.3,40.8-0.1,61.3
		c-0.1,6.8,2.8,9.2,8.6,6.9c1.9-0.7,3.5-4.7,3.5-7.3c0.3-19.3,0.4-38.6,0-57.9c-0.1-6.9,1.7-9.3,9-9.3c51.6,0.3,103.2,0.1,154.9,0.4
		c32.4,0.2,57.7,25.1,58.7,57.3C447.1,222.4,446.8,235.7,446.8,250z M419.4,202.3c0-4.5-0.1-9.1,0-13.6c0.2-8-3.5-12.3-11.6-12.2
		c-9.6,0-19.3-0.1-28.9,0.1c-6.8,0.1-10.5,3.6-10.4,10.6c0.1,10.2,0,20.4,0,30.6c0,7.1,3.8,10.4,10.6,10.5c9.9,0.2,19.8,0.2,29.8,0
		c6.8-0.1,10.4-3.9,10.6-10.7C419.5,212.6,419.4,207.4,419.4,202.3z"/>
	<path fill="#FFFFFF" d="M355.6,304.1c0.1,33.1-26,59.2-59.2,59.3c-33.1,0.1-59.4-26.1-59.5-59.1c-0.1-32.8,26.4-59.4,59.3-59.5
		C328.9,244.6,355.4,271.1,355.6,304.1z M339.9,305c0-25-18.5-44.1-43-44.3c-24.5-0.2-44.2,19.1-44.2,43.2c0.1,24.4,19.5,44,43.6,44
		C320.3,347.9,339.9,328.6,339.9,305z"/>
</g>
</svg>
