<?xml version="1.0" encoding="utf-8"?>
<!-- Generator: Adobe Illustrator 18.1.1, SVG Export Plug-In . SVG Version: 6.00 Build 0)  -->
<svg version="1.1" id="Layer_1" xmlns="http://www.w3.org/2000/svg" xmlns:xlink="http://www.w3.org/1999/xlink" x="0px" y="0px"
	 width="400px" height="400px" viewBox="-303 107 400 400" enable-background="new -303 107 400 400" xml:space="preserve">
<rect x="-303" y="107" fill="#FFFFFF" stroke="#000000" stroke-miterlimit="10" width="400" height="400"/>
<path fill="#4D4D4D" d="M-140.4,255.4c0,0,41-37.4,5.4-47.3c-26.7-7.4-64.3,4.4-70.9,38.6c-5,26,35,33.7,58.2,47
	c19.1,10.9,22.8,26.7-14.9,52.6s-70.4,3.9-71-3.5s19.7-33.9,59.3-50.8c0,0-24.7-2.2-48.5,15c-23.8,17.2-23.2,42.4-2.4,55.3
	c24.2,15,67.2,7.1,92.3-21.5c0,0,6.8,19.1,30.8,13.7c24-5.4,40.5-47.6,43.8-54.1c0,0-7.3,104.2-60.9,140.8s-38.2-11.6-15.4-29.8
	c22.8-18.2,42.1-39.3,42.1-39.3s-52.9,20.8-68,55.1s12.6,41.6,39,26.8c26.3-14.8,62.1-50.5,76.7-166.2l-12-10.6
	c0,0-49.1,87.8-62.4,64.8s0.9-40.7,4.7-48.7l-9.4-11.6c0,0-4.1,12.2-6,19.6c0,0-1.4-25.6-57.6-42.7c-2.8-0.8-5.2-2.6-6.8-4.9
	c-4.8-6.9-9.7-21.7,20.4-35.8c40.7-19.2,53.2,12,38.6,19.5L-140.4,255.4z"/>
<path fill="#4D4D4D" d="M-19.4,207l16.3,10.4c0,0,16.3,79.7,12.5,123.3L0.5,338c0,0-8-39.3-7.2-52.3c0,0-24.6,21.6-21.2,48.5
	c0,0,8-0.5,11.5-11.6c0,0,3.7,8.9-7.6,20.8c0,0-36.3-3.5-15.5-42.9c14-26.6,24.5-27.9,29.4-26.3c1.1,0.4,2.2-0.6,2-1.8L-19.4,207z"
	/>
<polygon fill="#4D4D4D" points="22.9,326.9 34.7,333.8 32.4,339.9 20.1,333.4 "/>
<rect x="-282.9" y="125.1" fill="none" stroke="#4D4D4D" stroke-width="4" stroke-miterlimit="10" width="359.8" height="363.7"/>
</svg>
