<?xml version="1.0" encoding="utf-8"?>
<!-- Generator: Adobe Illustrator 18.1.1, SVG Export Plug-In . SVG Version: 6.00 Build 0)  -->
<svg version="1.1" id="Layer_1" xmlns="http://www.w3.org/2000/svg" xmlns:xlink="http://www.w3.org/1999/xlink" x="0px" y="0px"
	 width="20px" height="20px" viewBox="0 0 20 20" style="enable-background:new 0 0 20 20;" xml:space="preserve">
<style type="text/css">
	.st0{fill:#6D6E71;}
</style>
<path class="st0" d="M9.6,1.4c-4.7,0-8.5,3.8-8.5,8.5s3.8,8.5,8.5,8.5s8.5-3.8,8.5-8.5S14.3,1.4,9.6,1.4z M8,3.1C8,3.1,8,3,8.1,3
	h3.1C11.2,3,11,3.1,11,3.1v0.6C11,3.8,11.2,4,11.2,4H10v2.6L9,8V7.8c0,0,0,0,0,0V4H8.1C8,4,8,3.8,8,3.7V3.1z M12,14.3
	c0,0.2-0.1,0.6-0.2,0.7c0,0-0.8,1-1.9,2H9.4c-1.1-1-2-2-2-2C7.3,14.8,7,14.5,7,14.3v-2.2C7,11.9,7.5,12,7.7,12h1.2
	C9.1,12,9,11.5,9,11.4v-2l1-1.5v3.4c0,0.1,0.1,0.7,0.4,0.7h1.2c0.2,0,0.5-0.1,0.5,0.1V14.3z"/>
<g>
</g>
<g>
</g>
<g>
</g>
<g>
</g>
<g>
</g>
<g>
</g>
</svg>
